<svg id="svg" version="1.1" xmlns="http://www.w3.org/2000/svg" xmlns:xlink="http://www.w3.org/1999/xlink" width="400" height="400" viewBox="0, 0, 400,400"><g id="svgg"><path id="path0" d="M31.067 263.867 C 30.920 264.013,30.800 264.913,30.800 265.867 L 30.800 267.600 15.400 267.600 L 0.000 267.600 0.000 301.200 L 0.000 334.800 15.400 334.800 C 27.450 334.800,30.801 334.691,30.806 334.300 C 30.810 333.967,30.942 334.000,31.200 334.400 C 31.452 334.790,31.590 322.496,31.594 299.300 C 31.597 279.665,31.540 263.600,31.467 263.600 C 31.393 263.600,31.213 263.720,31.067 263.867 M329.600 265.400 L 329.400 267.400 302.498 267.503 L 275.595 267.606 275.698 299.103 L 275.800 330.600 302.711 330.703 C 324.028 330.784,329.663 330.701,329.815 330.303 C 329.920 330.026,329.960 314.860,329.903 296.600 C 329.846 278.340,329.710 264.300,329.600 265.400 M368.507 296.400 C 368.499 314.550,368.607 330.570,368.747 332.000 L 369.000 334.600 384.500 334.705 L 400.000 334.809 400.000 301.205 L 400.000 267.600 384.608 267.600 L 369.215 267.600 369.017 266.700 C 368.908 266.205,368.752 265.260,368.670 264.600 C 368.587 263.940,368.514 278.250,368.507 296.400 M212.051 265.700 L 212.000 267.600 185.649 267.600 L 159.298 267.600 159.136 287.300 C 159.046 298.135,159.046 312.356,159.134 318.903 L 159.294 330.806 185.947 330.703 L 212.600 330.600 212.702 299.939 C 212.759 283.075,212.647 268.045,212.453 266.539 C 212.128 264.010,212.097 263.946,212.051 265.700 M70.800 267.224 C 70.800 267.457,70.620 267.536,70.400 267.400 C 70.135 267.236,70.000 277.863,70.000 298.976 L 70.000 330.800 97.600 330.800 L 125.200 330.800 125.200 299.200 L 125.200 267.600 98.400 267.600 C 80.800 267.600,71.600 267.463,71.600 267.200 C 71.600 266.980,71.420 266.800,71.200 266.800 C 70.980 266.800,70.800 266.991,70.800 267.224 " stroke="none" fill="#0cb4e4" fill-rule="evenodd"></path><path id="path1" d="M125.200 175.967 C 125.200 186.509,125.091 195.419,124.957 195.767 C 124.710 196.411,73.652 196.778,71.319 196.153 C 70.584 195.956,70.415 195.578,70.293 193.858 C 70.213 192.726,70.115 208.754,70.074 229.476 C 70.006 264.054,70.121 268.915,70.966 267.102 C 71.153 266.701,71.247 266.701,71.433 267.100 C 71.617 267.493,77.411 267.600,98.433 267.600 L 125.200 267.600 125.200 256.600 C 125.200 249.533,125.343 245.600,125.600 245.600 C 125.864 245.600,126.000 230.533,126.000 201.200 C 126.000 171.867,125.864 156.800,125.600 156.800 C 125.339 156.800,125.200 163.456,125.200 175.967 M158.992 228.800 C 158.991 268.510,159.040 293.485,159.100 284.300 L 159.209 267.600 185.604 267.600 L 212.000 267.600 212.063 265.700 L 212.126 263.800 212.400 265.800 C 212.551 266.900,212.730 262.175,212.797 255.300 C 212.940 240.767,212.891 241.880,213.400 241.506 C 213.646 241.326,213.602 241.210,213.286 241.206 C 212.922 241.202,212.880 240.995,213.143 240.500 C 213.346 240.115,213.541 237.640,213.575 235.000 C 213.609 232.360,213.808 230.140,214.018 230.067 C 214.228 229.993,214.400 228.969,214.400 227.790 C 214.400 226.612,214.580 225.536,214.800 225.400 C 215.020 225.264,215.200 224.443,215.200 223.576 C 215.200 222.709,215.380 222.000,215.600 222.000 C 215.820 222.000,216.000 221.727,216.000 221.394 C 216.000 220.424,216.966 217.600,217.297 217.600 C 217.464 217.600,217.600 217.060,217.600 216.400 C 217.600 215.740,217.752 215.200,217.937 215.200 C 218.123 215.200,218.707 214.345,219.235 213.300 C 220.454 210.892,221.556 209.237,222.700 208.097 C 223.195 207.604,223.600 207.020,223.600 206.800 C 223.600 206.580,223.771 206.400,223.981 206.400 C 224.190 206.400,224.955 205.815,225.681 205.100 C 226.406 204.385,227.259 203.744,227.575 203.675 C 227.891 203.606,228.452 203.201,228.822 202.775 C 229.191 202.349,229.923 201.997,230.447 201.994 C 231.209 201.989,231.280 201.910,230.800 201.600 C 230.331 201.297,230.434 201.211,231.276 201.206 C 231.868 201.203,232.464 201.020,232.600 200.800 C 232.736 200.580,233.366 200.400,234.000 200.400 C 234.634 200.400,235.264 200.220,235.400 200.000 C 235.536 199.780,236.141 199.600,236.744 199.600 C 237.347 199.600,238.011 199.432,238.220 199.227 C 238.429 199.022,239.905 198.803,241.500 198.740 C 243.095 198.676,244.400 198.484,244.400 198.312 C 244.400 198.141,245.491 198.000,246.824 198.000 C 248.157 198.000,249.153 198.152,249.039 198.337 C 248.924 198.523,250.038 198.713,251.515 198.760 C 252.992 198.807,254.371 199.016,254.580 199.223 C 254.789 199.430,255.374 199.600,255.880 199.600 C 256.386 199.600,256.800 199.741,256.800 199.913 C 256.800 200.085,257.266 200.264,257.836 200.311 C 258.406 200.358,259.379 200.758,259.998 201.199 C 260.617 201.639,261.239 202.000,261.380 202.000 C 261.521 202.000,262.099 202.462,262.663 203.027 C 263.228 203.592,264.103 204.211,264.606 204.402 C 265.109 204.594,266.032 205.436,266.656 206.275 C 267.280 207.114,268.108 208.091,268.496 208.447 C 268.883 208.803,269.200 209.388,269.200 209.747 C 269.200 210.106,269.380 210.400,269.600 210.400 C 269.820 210.400,270.000 210.760,270.000 211.200 C 270.000 211.640,270.180 212.000,270.400 212.000 C 270.620 212.000,270.800 212.439,270.800 212.976 C 270.800 213.513,270.980 214.064,271.200 214.200 C 271.420 214.336,271.600 214.797,271.600 215.224 C 271.600 215.651,271.780 216.000,272.000 216.000 C 272.220 216.000,272.400 216.542,272.400 217.205 C 272.400 217.868,272.558 218.723,272.751 219.105 C 273.521 220.629,274.000 222.756,274.000 224.648 C 274.000 225.744,274.171 226.811,274.379 227.020 C 274.588 227.229,274.789 230.952,274.825 235.300 C 274.862 239.645,275.049 243.200,275.241 243.200 C 275.433 243.200,275.564 243.515,275.532 243.900 C 275.500 244.285,275.502 249.775,275.537 256.100 L 275.600 267.600 302.376 267.600 C 323.358 267.600,329.223 267.492,329.476 267.100 C 329.976 266.328,330.110 213.085,329.611 213.393 C 329.341 213.560,329.200 212.428,329.200 210.104 C 329.200 208.155,329.035 206.389,328.834 206.180 C 328.632 205.971,328.369 204.720,328.249 203.400 C 327.682 197.163,326.947 194.893,325.849 195.991 C 325.573 196.267,298.480 196.400,242.324 196.400 L 159.207 196.400 159.100 176.500 C 159.041 165.555,158.992 189.090,158.992 228.800 M324.400 188.153 C 324.400 188.483,324.580 188.864,324.800 189.000 C 325.020 189.136,325.200 188.977,325.200 188.647 C 325.200 188.317,325.020 187.936,324.800 187.800 C 324.580 187.664,324.400 187.823,324.400 188.153 M326.074 192.977 C 326.225 193.145,326.175 193.741,325.962 194.301 C 325.623 195.191,325.652 195.255,326.187 194.811 C 326.929 194.195,326.980 193.351,326.300 192.959 C 326.025 192.801,325.924 192.809,326.074 192.977 M368.538 230.600 C 368.572 250.180,368.754 266.515,368.943 266.900 C 369.260 267.549,370.414 267.600,384.643 267.600 L 400.000 267.600 400.000 232.000 L 400.000 196.400 384.429 196.400 C 369.940 196.400,368.845 196.351,368.667 195.700 C 368.562 195.315,368.504 211.020,368.538 230.600 M30.800 195.976 C 30.800 196.267,25.972 196.400,15.400 196.400 L 0.000 196.400 0.000 232.000 L 0.000 267.600 15.400 267.600 L 30.800 267.600 30.800 265.824 C 30.800 264.847,30.980 263.936,31.200 263.800 C 31.462 263.638,31.600 251.870,31.600 229.800 C 31.600 207.730,31.462 195.962,31.200 195.800 C 30.980 195.664,30.800 195.743,30.800 195.976 " stroke="none" fill="#11c3d3" fill-rule="evenodd"></path><path id="path2" d="M36.500 0.291 C 35.565 0.376,34.800 0.616,34.800 0.823 C 34.800 1.030,34.181 1.200,33.424 1.200 C 32.667 1.200,31.936 1.380,31.800 1.600 C 31.664 1.820,31.209 2.000,30.789 2.000 C 30.368 2.000,29.383 2.360,28.600 2.800 C 27.817 3.240,26.911 3.600,26.588 3.600 C 26.265 3.600,26.000 3.780,26.000 4.000 C 26.000 4.220,25.730 4.400,25.400 4.400 C 25.070 4.400,24.800 4.580,24.800 4.800 C 24.800 5.020,24.440 5.200,24.000 5.200 C 23.560 5.200,23.200 5.380,23.200 5.600 C 23.200 5.820,22.880 6.000,22.488 6.000 C 22.097 6.000,21.517 6.360,21.200 6.800 C 20.883 7.240,20.303 7.600,19.912 7.600 C 19.520 7.600,19.200 7.768,19.200 7.973 C 19.200 8.178,18.841 8.460,18.402 8.599 C 16.677 9.147,9.136 16.712,8.585 18.448 C 8.454 18.861,8.178 19.200,7.973 19.200 C 7.768 19.200,7.600 19.520,7.600 19.912 C 7.600 20.303,7.240 20.883,6.800 21.200 C 6.360 21.517,6.000 22.097,6.000 22.488 C 6.000 22.880,5.820 23.200,5.600 23.200 C 5.380 23.200,5.200 23.560,5.200 24.000 C 5.200 24.440,5.020 24.800,4.800 24.800 C 4.580 24.800,4.400 25.070,4.400 25.400 C 4.400 25.730,4.220 26.000,4.000 26.000 C 3.780 26.000,3.600 26.242,3.600 26.539 C 3.600 26.835,3.292 27.690,2.915 28.439 C 2.537 29.187,2.172 30.156,2.103 30.591 C 2.034 31.027,1.802 31.558,1.589 31.771 C 1.375 31.985,1.200 32.855,1.200 33.704 C 1.200 34.553,1.045 35.151,0.856 35.035 C 0.369 34.733,0.000 38.878,0.000 44.659 L 0.000 49.600 15.410 49.600 L 30.820 49.600 31.060 48.400 C 31.192 47.740,31.517 47.200,31.782 47.200 C 32.091 47.200,32.296 46.376,32.354 44.900 C 32.404 43.635,32.615 42.540,32.822 42.467 C 33.030 42.393,33.200 41.988,33.200 41.567 C 33.200 41.145,33.380 40.800,33.600 40.800 C 33.820 40.800,34.000 40.464,34.000 40.054 C 34.000 39.254,38.040 34.800,38.765 34.800 C 39.004 34.800,39.200 34.620,39.200 34.400 C 39.200 34.180,39.560 34.000,40.000 34.000 C 40.440 34.000,40.800 33.820,40.800 33.600 C 40.800 33.380,41.145 33.200,41.567 33.200 C 41.988 33.200,42.393 33.024,42.467 32.810 C 42.540 32.595,43.552 32.387,44.716 32.346 C 45.880 32.305,46.925 32.121,47.040 31.936 C 47.311 31.497,352.689 31.497,352.960 31.936 C 353.075 32.121,354.120 32.305,355.284 32.346 C 356.448 32.387,357.460 32.595,357.533 32.810 C 357.607 33.024,358.012 33.200,358.433 33.200 C 358.855 33.200,359.200 33.380,359.200 33.600 C 359.200 33.820,359.560 34.000,360.000 34.000 C 360.440 34.000,360.800 34.180,360.800 34.400 C 360.800 34.620,361.190 34.800,361.667 34.800 C 362.143 34.800,362.421 34.912,362.285 35.049 C 362.148 35.185,362.748 35.981,363.618 36.817 C 364.488 37.653,365.200 38.531,365.200 38.769 C 365.200 39.006,365.380 39.200,365.600 39.200 C 365.820 39.200,366.000 39.560,366.000 40.000 C 366.000 40.440,366.180 40.800,366.400 40.800 C 366.620 40.800,366.800 41.145,366.800 41.567 C 366.800 41.988,366.963 42.393,367.162 42.467 C 367.361 42.540,367.586 43.050,367.662 43.600 C 367.738 44.150,367.980 44.732,368.200 44.894 C 368.448 45.076,368.410 45.190,368.100 45.194 C 367.825 45.197,367.600 45.374,367.600 45.587 C 367.600 45.801,367.870 45.871,368.200 45.745 C 368.573 45.602,368.800 45.747,368.800 46.128 C 368.800 46.465,368.485 46.824,368.100 46.924 C 367.433 47.098,367.433 47.109,368.100 47.154 C 368.601 47.187,368.800 47.541,368.800 48.400 L 368.800 49.600 384.454 49.600 L 400.108 49.600 399.917 42.321 C 399.785 37.316,399.581 34.994,399.263 34.888 C 399.008 34.803,398.800 34.129,398.800 33.390 C 398.800 32.652,398.620 31.936,398.400 31.800 C 398.180 31.664,398.000 31.124,398.000 30.600 C 398.000 30.076,397.820 29.536,397.600 29.400 C 397.380 29.264,397.200 28.803,397.200 28.376 C 397.200 27.949,397.020 27.600,396.800 27.600 C 396.580 27.600,396.400 27.240,396.400 26.800 C 396.400 26.360,396.220 26.000,396.000 26.000 C 395.780 26.000,395.600 25.730,395.600 25.400 C 395.600 25.070,395.420 24.800,395.200 24.800 C 394.980 24.800,394.800 24.440,394.800 24.000 C 394.800 23.560,394.620 23.200,394.400 23.200 C 394.180 23.200,394.000 22.880,394.000 22.488 C 394.000 22.097,393.640 21.517,393.200 21.200 C 392.760 20.883,392.400 20.318,392.400 19.945 C 392.400 19.572,392.265 19.207,392.100 19.133 C 391.935 19.060,391.260 18.191,390.600 17.202 C 389.037 14.861,383.763 9.729,382.100 8.932 C 381.385 8.589,380.800 8.149,380.800 7.954 C 380.800 7.759,380.480 7.600,380.088 7.600 C 379.697 7.600,379.117 7.240,378.800 6.800 C 378.483 6.360,377.903 6.000,377.512 6.000 C 377.120 6.000,376.800 5.820,376.800 5.600 C 376.800 5.380,376.440 5.200,376.000 5.200 C 375.560 5.200,375.200 5.020,375.200 4.800 C 375.200 4.580,374.930 4.400,374.600 4.400 C 374.270 4.400,374.000 4.220,374.000 4.000 C 374.000 3.780,373.735 3.600,373.412 3.600 C 373.089 3.600,372.183 3.240,371.400 2.800 C 370.617 2.360,369.621 2.000,369.188 2.000 C 368.755 2.000,368.400 1.820,368.400 1.600 C 368.400 1.380,367.695 1.200,366.833 1.200 C 365.936 1.200,365.196 0.987,365.100 0.700 C 364.943 0.229,41.595 -0.174,36.500 0.291 M125.200 155.176 C 125.200 156.069,125.380 156.800,125.600 156.800 C 125.820 156.800,126.000 156.181,126.000 155.424 C 126.000 154.667,125.820 153.936,125.600 153.800 C 125.358 153.651,125.200 154.196,125.200 155.176 " stroke="none" fill="#29f19d" fill-rule="evenodd"></path><path id="path3" d="M275.393 287.400 C 275.393 310.940,275.441 320.511,275.500 308.669 C 275.559 296.827,275.559 277.567,275.500 265.869 C 275.441 254.171,275.393 263.860,275.393 287.400 M125.200 288.224 C 125.200 316.537,125.334 330.764,125.600 330.600 C 125.863 330.438,126.000 315.796,126.000 287.976 C 126.000 259.992,125.864 245.600,125.600 245.600 C 125.336 245.600,125.200 260.075,125.200 288.224 M158.974 320.800 C 158.974 326.410,159.030 328.705,159.099 325.900 C 159.168 323.095,159.168 318.505,159.099 315.700 C 159.030 312.895,158.974 315.190,158.974 320.800 M368.467 341.300 C 368.424 348.655,368.256 352.800,368.000 352.800 C 367.778 352.800,367.600 353.856,367.600 355.167 C 367.600 356.468,367.422 357.593,367.203 357.667 C 366.985 357.740,366.767 358.282,366.719 358.871 C 366.670 359.460,366.488 359.855,366.315 359.748 C 366.142 359.640,366.000 359.833,366.000 360.176 C 366.000 360.519,365.820 360.800,365.600 360.800 C 365.380 360.800,365.200 360.985,365.200 361.211 C 365.200 361.745,361.745 365.200,361.211 365.200 C 360.985 365.200,360.799 365.335,360.797 365.500 C 360.793 365.859,358.856 366.800,358.120 366.800 C 357.834 366.800,357.600 366.980,357.600 367.200 C 357.600 367.420,356.895 367.600,356.033 367.600 C 355.154 367.600,354.378 367.819,354.265 368.100 C 354.104 368.500,354.057 368.500,354.032 368.100 C 353.994 367.511,352.800 367.414,352.800 368.000 C 352.800 368.266,301.600 368.400,200.000 368.400 C 98.400 368.400,47.200 368.266,47.200 368.000 C 47.200 367.778,46.144 367.600,44.833 367.600 C 43.532 367.600,42.407 367.422,42.333 367.203 C 42.260 366.985,41.718 366.767,41.129 366.719 C 40.540 366.670,40.145 366.488,40.252 366.315 C 40.360 366.142,40.167 366.000,39.824 366.000 C 39.481 366.000,39.200 365.820,39.200 365.600 C 39.200 365.380,38.810 365.200,38.333 365.200 C 37.857 365.200,37.580 365.086,37.719 364.947 C 37.944 364.723,36.031 362.662,35.290 362.330 C 34.877 362.145,33.200 358.828,33.200 358.196 C 33.200 357.905,33.030 357.607,32.823 357.533 C 32.615 357.460,32.390 356.366,32.323 355.101 C 32.255 353.837,32.065 352.802,31.900 352.801 C 31.735 352.801,31.597 348.795,31.594 343.900 C 31.590 338.845,31.420 334.741,31.200 334.400 C 30.942 334.000,30.810 333.967,30.806 334.300 C 30.801 334.691,27.450 334.800,15.400 334.800 L 0.000 334.800 0.017 348.100 C 0.028 355.874,0.209 362.148,0.453 363.200 C 0.683 364.190,0.964 365.765,1.076 366.700 C 1.189 367.635,1.442 368.400,1.640 368.400 C 1.838 368.400,2.000 368.755,2.000 369.188 C 2.000 369.621,2.360 370.617,2.800 371.400 C 3.240 372.183,3.600 373.089,3.600 373.412 C 3.600 373.735,3.780 374.000,4.000 374.000 C 4.220 374.000,4.400 374.270,4.400 374.600 C 4.400 374.930,4.580 375.200,4.800 375.200 C 5.020 375.200,5.200 375.560,5.200 376.000 C 5.200 376.440,5.380 376.800,5.600 376.800 C 5.820 376.800,6.000 377.120,6.000 377.512 C 6.000 377.903,6.360 378.483,6.800 378.800 C 7.240 379.117,7.600 379.682,7.600 380.055 C 7.600 380.428,7.740 380.793,7.910 380.867 C 8.081 380.940,8.601 381.611,9.067 382.358 C 10.303 384.338,16.128 390.128,17.781 391.018 C 18.562 391.438,19.200 391.921,19.200 392.091 C 19.200 392.261,19.520 392.400,19.912 392.400 C 20.303 392.400,20.883 392.760,21.200 393.200 C 21.517 393.640,22.097 394.000,22.488 394.000 C 22.880 394.000,23.200 394.180,23.200 394.400 C 23.200 394.620,23.560 394.800,24.000 394.800 C 24.440 394.800,24.800 394.980,24.800 395.200 C 24.800 395.420,25.070 395.600,25.400 395.600 C 25.730 395.600,26.000 395.780,26.000 396.000 C 26.000 396.220,26.360 396.400,26.800 396.400 C 27.240 396.400,27.600 396.580,27.600 396.800 C 27.600 397.020,28.050 397.200,28.600 397.200 C 29.150 397.200,29.600 397.380,29.600 397.600 C 29.600 397.820,30.050 398.000,30.600 398.000 C 31.150 398.000,31.600 398.180,31.600 398.400 C 31.600 398.620,32.305 398.800,33.167 398.800 C 34.064 398.800,34.804 399.013,34.900 399.300 C 35.145 400.036,364.855 400.036,365.100 399.300 C 365.196 399.013,365.936 398.800,366.833 398.800 C 367.695 398.800,368.400 398.653,368.400 398.472 C 368.400 398.292,369.300 397.900,370.400 397.600 C 371.500 397.300,372.400 396.908,372.400 396.728 C 372.400 396.547,372.760 396.400,373.200 396.400 C 373.640 396.400,374.000 396.220,374.000 396.000 C 374.000 395.780,374.270 395.600,374.600 395.600 C 374.930 395.600,375.200 395.420,375.200 395.200 C 375.200 394.980,375.560 394.800,376.000 394.800 C 376.440 394.800,376.800 394.620,376.800 394.400 C 376.800 394.180,377.120 394.000,377.512 394.000 C 377.903 394.000,378.483 393.640,378.800 393.200 C 379.117 392.760,379.697 392.400,380.088 392.400 C 380.480 392.400,380.800 392.261,380.800 392.091 C 380.800 391.921,381.421 391.448,382.179 391.039 C 383.903 390.111,389.051 385.047,390.622 382.734 C 391.270 381.780,391.935 380.940,392.100 380.867 C 392.265 380.793,392.400 380.428,392.400 380.055 C 392.400 379.682,392.760 379.117,393.200 378.800 C 393.640 378.483,394.000 377.903,394.000 377.512 C 394.000 377.120,394.180 376.800,394.400 376.800 C 394.620 376.800,394.800 376.440,394.800 376.000 C 394.800 375.560,394.980 375.200,395.200 375.200 C 395.420 375.200,395.600 374.930,395.600 374.600 C 395.600 374.270,395.780 374.000,396.000 374.000 C 396.220 374.000,396.400 373.640,396.400 373.200 C 396.400 372.760,396.547 372.400,396.728 372.400 C 396.908 372.400,397.300 371.500,397.600 370.400 C 397.900 369.300,398.292 368.400,398.472 368.400 C 398.653 368.400,398.800 367.579,398.800 366.576 C 398.800 365.573,398.955 364.849,399.144 364.965 C 399.762 365.347,400.000 360.501,400.000 347.546 L 400.000 334.809 384.500 334.705 L 369.000 334.600 368.767 332.200 C 368.639 330.880,368.504 334.975,368.467 341.300 " stroke="none" fill="#05a4f6" fill-rule="evenodd"></path><path id="path4" d="M123.494 117.439 C 123.363 117.571,123.358 117.946,123.483 118.273 C 123.669 118.757,123.774 118.768,124.050 118.334 C 124.639 117.403,124.214 116.719,123.494 117.439 M74.226 119.158 C 74.104 119.355,74.256 119.613,74.563 119.731 C 75.150 119.956,75.600 119.696,75.600 119.133 C 75.600 118.687,74.505 118.706,74.226 119.158 M121.200 119.274 C 121.200 119.479,121.365 119.545,121.566 119.421 C 121.767 119.297,121.992 119.358,122.066 119.558 C 122.140 119.758,122.411 119.691,122.669 119.411 C 123.039 119.008,122.933 118.900,122.169 118.900 C 121.636 118.900,121.200 119.068,121.200 119.274 M75.308 120.983 C 75.579 121.276,75.935 121.434,76.100 121.334 C 76.658 120.996,76.404 120.571,75.608 120.511 C 74.968 120.462,74.910 120.553,75.308 120.983 M120.712 121.178 C 120.356 121.593,120.170 122.036,120.297 122.164 C 120.424 122.291,120.788 122.024,121.105 121.572 C 121.854 120.503,121.550 120.199,120.712 121.178 M118.400 121.207 C 118.400 121.478,111.614 121.607,98.105 121.593 C 85.191 121.579,77.762 121.714,77.679 121.963 C 77.607 122.179,77.245 122.246,76.874 122.114 C 76.503 121.981,76.319 122.005,76.463 122.166 C 76.693 122.423,77.530 122.670,78.500 122.769 C 78.665 122.786,78.800 123.160,78.800 123.600 C 78.800 124.141,79.067 124.400,79.624 124.400 C 80.105 124.400,80.338 124.577,80.183 124.827 C 80.025 125.083,80.216 125.203,80.660 125.127 C 81.087 125.054,81.358 125.211,81.300 125.500 C 81.245 125.775,81.560 126.000,82.000 126.000 C 82.440 126.000,82.800 126.188,82.800 126.418 C 82.800 126.647,83.115 126.782,83.500 126.718 C 83.885 126.653,84.170 126.780,84.134 127.000 C 84.098 127.220,84.624 127.440,85.304 127.489 C 85.984 127.539,86.643 127.729,86.770 127.912 C 87.146 128.457,89.520 129.297,89.944 129.035 C 90.159 128.902,90.615 129.072,90.957 129.414 C 92.145 130.602,107.390 129.867,108.698 128.559 C 108.987 128.270,109.488 128.136,109.812 128.260 C 110.135 128.384,110.400 128.286,110.400 128.043 C 110.400 127.799,110.703 127.600,111.074 127.600 C 111.445 127.600,112.142 127.231,112.622 126.779 C 113.103 126.328,113.880 125.929,114.348 125.894 C 114.817 125.859,115.200 125.677,115.200 125.491 C 115.200 125.305,115.380 125.264,115.600 125.400 C 115.820 125.536,116.000 125.356,116.000 125.000 C 116.000 124.644,116.180 124.464,116.400 124.600 C 116.620 124.736,116.800 124.547,116.800 124.181 C 116.800 123.759,117.016 123.597,117.387 123.740 C 117.710 123.864,118.098 123.765,118.249 123.521 C 118.431 123.226,118.335 123.190,117.962 123.415 C 117.490 123.699,117.485 123.649,117.929 123.101 C 118.220 122.741,118.701 122.541,118.998 122.655 C 119.354 122.791,119.491 122.613,119.400 122.131 C 119.324 121.729,119.247 121.265,119.231 121.100 C 119.184 120.642,118.400 120.743,118.400 121.207 M368.673 121.353 C 368.337 122.230,368.316 194.247,368.652 195.500 L 368.893 196.400 384.447 196.400 L 400.000 196.400 400.000 159.000 L 400.000 121.600 384.633 121.600 C 373.041 121.600,369.227 121.482,369.107 121.120 C 369.009 120.828,368.840 120.919,368.673 121.353 M15.500 121.505 L 0.000 121.609 0.000 159.005 L 0.000 196.400 15.400 196.400 C 25.972 196.400,30.800 196.267,30.800 195.976 C 30.800 195.743,30.980 195.664,31.200 195.800 C 31.648 196.077,31.706 126.823,31.260 123.400 L 31.000 121.400 15.500 121.505 M254.293 150.641 C 254.161 150.773,252.916 151.051,251.526 151.259 C 250.137 151.467,248.324 151.738,247.497 151.861 C 246.671 151.984,245.895 152.245,245.774 152.442 C 245.652 152.639,245.023 152.800,244.376 152.800 C 243.729 152.800,243.200 152.980,243.200 153.200 C 243.200 153.420,242.748 153.600,242.195 153.600 C 241.226 153.600,240.862 153.726,238.905 154.738 C 238.413 154.992,237.648 155.200,237.205 155.200 C 236.762 155.200,236.400 155.380,236.400 155.600 C 236.400 155.820,236.040 156.000,235.600 156.000 C 235.160 156.000,234.800 156.136,234.800 156.302 C 234.800 156.469,234.215 156.859,233.500 157.170 C 232.785 157.481,232.110 157.867,232.000 158.028 C 231.890 158.189,231.440 158.383,231.000 158.460 C 230.560 158.537,229.990 158.870,229.732 159.200 C 229.475 159.530,229.115 159.801,228.932 159.802 C 228.460 159.806,226.602 161.142,224.555 162.951 C 223.590 163.804,222.795 164.344,222.788 164.151 C 222.781 163.958,222.592 164.115,222.368 164.500 C 222.144 164.885,221.689 165.200,221.357 165.200 C 221.024 165.200,220.864 165.379,220.999 165.598 C 221.134 165.817,220.785 166.206,220.223 166.463 C 219.660 166.719,219.200 167.060,219.200 167.222 C 219.200 167.383,218.705 168.064,218.100 168.736 C 216.182 170.863,215.211 172.185,215.205 172.677 C 215.202 172.940,214.871 173.390,214.469 173.677 C 214.067 173.965,213.533 174.560,213.281 175.000 C 212.930 175.615,212.822 173.228,212.812 164.700 L 212.800 153.600 185.857 153.600 L 158.914 153.600 158.979 155.100 C 159.014 155.925,159.079 165.555,159.122 176.500 L 159.200 196.400 242.376 196.400 C 298.286 196.400,325.635 196.267,325.804 195.993 C 325.942 195.770,326.223 195.691,326.428 195.817 C 326.632 195.944,326.800 195.655,326.800 195.175 C 326.800 194.436,326.706 194.380,326.187 194.811 C 325.653 195.254,325.623 195.193,325.952 194.326 C 326.160 193.780,326.187 193.103,326.014 192.822 C 325.840 192.541,325.787 191.971,325.896 191.556 C 326.004 191.140,325.892 190.800,325.647 190.800 C 325.401 190.800,325.200 190.451,325.200 190.024 C 325.200 189.597,325.004 189.126,324.765 188.978 C 324.526 188.831,324.428 188.334,324.548 187.876 C 324.668 187.417,324.549 186.773,324.283 186.444 C 323.889 185.956,323.910 185.903,324.400 186.153 C 324.730 186.321,324.662 186.185,324.250 185.849 C 323.821 185.500,323.602 184.973,323.737 184.619 C 323.868 184.279,323.790 184.000,323.564 184.000 C 323.338 184.000,323.264 183.820,323.400 183.600 C 323.536 183.380,323.449 183.200,323.206 183.200 C 322.963 183.200,322.801 182.975,322.846 182.700 C 322.950 182.055,322.390 180.747,321.719 180.068 C 321.429 179.775,321.295 179.370,321.420 179.168 C 321.545 178.965,321.493 178.800,321.304 178.800 C 321.115 178.800,320.721 178.137,320.428 177.327 C 320.135 176.517,319.742 175.662,319.554 175.427 C 319.366 175.192,318.737 174.407,318.156 173.683 C 317.576 172.959,317.207 172.260,317.336 172.130 C 317.466 172.001,317.038 171.396,316.386 170.787 C 315.734 170.178,315.200 169.481,315.200 169.240 C 315.200 168.998,315.044 168.800,314.854 168.800 C 314.663 168.800,313.853 167.960,313.054 166.934 C 312.254 165.908,311.600 165.194,311.600 165.348 C 311.600 165.501,310.964 164.991,310.187 164.213 C 309.409 163.436,308.700 162.800,308.611 162.800 C 308.522 162.800,307.858 162.260,307.136 161.600 C 306.413 160.940,305.601 160.400,305.331 160.400 C 305.061 160.400,304.696 160.175,304.520 159.900 C 304.097 159.239,301.016 157.600,300.197 157.600 C 299.843 157.600,299.664 157.420,299.800 157.200 C 299.940 156.973,299.604 156.800,299.024 156.800 C 298.461 156.800,298.000 156.620,298.000 156.400 C 298.000 156.180,297.640 156.000,297.200 156.000 C 296.760 156.000,296.400 155.820,296.400 155.600 C 296.400 155.380,296.040 155.200,295.600 155.200 C 295.160 155.200,294.800 155.020,294.800 154.800 C 294.800 154.580,294.408 154.400,293.928 154.400 C 293.008 154.400,290.672 153.740,289.505 153.151 C 289.123 152.958,288.279 152.800,287.629 152.800 C 286.979 152.800,286.348 152.639,286.226 152.442 C 285.996 152.069,284.262 151.757,280.200 151.358 C 278.880 151.228,277.629 150.960,277.420 150.761 C 277.005 150.366,254.683 150.250,254.293 150.641 M70.069 174.567 C 70.141 186.099,70.350 195.684,70.533 195.867 C 71.125 196.459,124.490 196.499,124.865 195.908 C 125.043 195.629,125.191 185.995,125.194 174.500 L 125.200 153.600 97.569 153.600 L 69.938 153.600 70.069 174.567 " stroke="none" fill="#1cd3c1" fill-rule="evenodd"></path><path id="path5" d="M367.826 45.958 C 367.704 46.155,367.874 46.419,368.202 46.546 C 368.565 46.685,368.800 46.544,368.800 46.187 C 368.800 45.540,368.175 45.393,367.826 45.958 M31.060 48.400 L 30.820 49.600 15.410 49.600 L 0.000 49.600 0.000 85.609 L 0.000 121.618 15.582 121.509 L 31.165 121.400 31.310 123.200 C 31.390 124.190,31.488 107.495,31.528 86.100 C 31.568 64.705,31.532 47.200,31.450 47.200 C 31.368 47.200,31.192 47.740,31.060 48.400 M368.470 84.400 C 368.433 108.670,368.548 121.589,368.800 121.200 C 369.058 120.800,369.190 120.767,369.194 121.100 C 369.199 121.491,372.550 121.600,384.600 121.600 L 400.000 121.600 400.000 85.600 L 400.000 49.600 384.425 49.600 L 368.851 49.600 368.689 48.300 C 368.601 47.585,368.502 63.830,368.470 84.400 M91.356 65.604 C 91.145 65.815,90.438 66.056,89.786 66.140 C 89.134 66.224,88.090 66.498,87.466 66.749 C 86.843 67.000,86.164 67.101,85.957 66.973 C 85.750 66.845,85.630 66.979,85.690 67.270 C 85.751 67.562,85.575 67.755,85.300 67.700 C 85.025 67.645,84.800 67.757,84.800 67.950 C 84.800 68.142,84.282 68.404,83.648 68.530 C 83.015 68.657,82.218 69.040,81.877 69.380 C 81.536 69.721,81.091 70.000,80.888 70.000 C 80.685 70.000,79.954 70.540,79.263 71.200 C 78.572 71.860,77.860 72.400,77.680 72.400 C 77.500 72.400,76.735 73.104,75.981 73.965 C 75.227 74.825,74.472 75.445,74.305 75.341 C 74.137 75.238,74.000 75.391,74.000 75.681 C 74.000 75.972,73.553 76.546,73.008 76.955 C 72.462 77.365,72.112 77.858,72.231 78.050 C 72.350 78.243,72.257 78.400,72.024 78.400 C 71.791 78.400,71.600 78.681,71.600 79.024 C 71.600 79.367,71.420 79.536,71.200 79.400 C 70.980 79.264,70.800 79.433,70.800 79.776 C 70.800 80.119,70.620 80.400,70.400 80.400 C 70.180 80.400,70.000 80.760,70.000 81.200 C 70.000 81.640,69.865 82.001,69.700 82.003 C 69.294 82.007,68.400 83.986,68.400 84.880 C 68.400 85.276,68.220 85.600,68.000 85.600 C 67.780 85.600,67.600 86.039,67.600 86.576 C 67.600 87.113,67.440 87.652,67.244 87.773 C 66.319 88.344,65.529 103.689,66.381 104.541 C 66.611 104.771,66.800 105.287,66.800 105.686 C 66.800 106.668,67.733 109.600,68.045 109.600 C 68.183 109.600,68.532 110.455,68.820 111.500 C 69.108 112.545,69.671 113.691,70.072 114.047 C 70.472 114.403,70.800 115.018,70.800 115.414 C 70.800 115.809,70.911 116.022,71.048 115.886 C 71.419 115.514,72.490 116.731,72.202 117.197 C 72.065 117.419,72.173 117.600,72.443 117.600 C 72.713 117.600,72.822 117.711,72.686 117.848 C 72.155 118.378,73.580 119.220,74.583 118.968 C 75.626 118.707,76.006 119.302,75.138 119.838 C 74.854 120.014,74.785 119.948,74.959 119.666 C 75.146 119.364,75.016 119.296,74.574 119.465 C 74.002 119.685,74.042 119.794,74.848 120.226 C 75.366 120.503,75.958 120.626,76.163 120.499 C 76.372 120.370,76.421 120.569,76.275 120.950 C 76.110 121.379,76.244 121.719,76.637 121.870 C 76.981 122.001,77.434 122.564,77.646 123.120 C 77.937 123.886,78.142 124.018,78.493 123.667 C 78.845 123.315,78.769 123.065,78.179 122.634 C 76.787 121.616,77.650 121.571,98.112 121.593 C 114.086 121.609,118.367 121.507,118.510 121.107 C 118.738 120.466,119.226 120.896,119.368 121.863 C 119.461 122.494,120.026 122.789,119.986 122.186 C 119.967 121.910,121.271 120.602,121.571 120.594 C 122.081 120.580,122.800 119.923,122.794 119.476 C 122.790 119.190,122.633 119.239,122.400 119.600 C 122.118 120.036,122.011 120.057,122.006 119.676 C 122.003 119.388,121.820 119.264,121.600 119.400 C 121.380 119.536,121.200 119.460,121.200 119.231 C 121.200 119.002,121.755 118.880,122.434 118.959 C 123.488 119.082,123.639 118.990,123.466 118.330 C 123.320 117.773,123.541 117.450,124.256 117.179 C 124.802 116.971,125.137 116.621,125.000 116.401 C 124.864 116.180,125.033 116.000,125.376 116.000 C 125.724 116.000,126.000 115.661,126.000 115.233 C 126.000 114.812,126.167 114.407,126.370 114.333 C 126.574 114.260,126.799 113.937,126.870 113.616 C 126.942 113.294,127.315 112.675,127.700 112.240 C 128.085 111.805,128.400 110.943,128.400 110.325 C 128.400 109.706,128.535 109.199,128.700 109.197 C 129.188 109.192,130.000 107.131,130.000 105.897 C 130.000 105.204,130.165 104.855,130.418 105.011 C 131.318 105.567,130.463 88.164,129.561 87.584 C 129.377 87.466,129.182 86.791,129.128 86.084 C 129.074 85.378,128.922 84.800,128.790 84.800 C 128.657 84.800,128.302 84.170,128.000 83.400 C 127.698 82.630,127.304 82.000,127.125 82.000 C 126.946 82.000,126.800 81.730,126.800 81.400 C 126.800 81.070,126.664 80.800,126.498 80.800 C 126.331 80.800,125.972 80.296,125.700 79.680 C 125.427 79.065,124.618 77.914,123.902 77.124 C 123.186 76.334,121.970 74.951,121.200 74.052 C 120.430 73.154,119.620 72.407,119.400 72.393 C 119.180 72.379,118.377 71.835,117.615 71.184 C 116.853 70.533,116.081 70.000,115.898 70.000 C 115.716 70.000,115.180 69.640,114.708 69.200 C 114.236 68.760,113.523 68.400,113.125 68.400 C 112.726 68.400,112.400 68.220,112.400 68.000 C 112.400 67.780,112.074 67.600,111.675 67.600 C 111.276 67.600,110.205 67.240,109.294 66.800 C 108.384 66.360,107.180 66.000,106.619 66.000 C 106.059 66.000,105.600 65.833,105.600 65.630 C 105.600 65.131,91.853 65.107,91.356 65.604 M117.698 123.201 C 117.204 123.601,116.800 124.135,116.800 124.388 C 116.800 124.640,116.620 124.736,116.400 124.600 C 116.180 124.464,116.000 124.543,116.000 124.776 C 116.000 125.464,116.712 125.262,117.313 124.403 C 117.620 123.964,117.965 123.698,118.079 123.812 C 118.193 123.926,118.500 123.761,118.762 123.445 C 119.495 122.563,118.709 122.383,117.698 123.201 M113.786 125.981 C 112.839 126.365,111.711 127.600,112.308 127.600 C 112.532 127.600,112.817 127.333,112.942 127.007 C 113.067 126.680,113.423 126.511,113.733 126.630 C 114.043 126.749,114.404 126.566,114.536 126.223 C 114.667 125.880,114.736 125.611,114.687 125.625 C 114.639 125.639,114.234 125.799,113.786 125.981 " stroke="none" fill="#24e4ad" fill-rule="evenodd"></path></g></svg>